<svg xmlns="http://www.w3.org/2000/svg" width="746.4" height="374.7" viewBox="0 0 746.4 374.7"><style>.st0{fill:#FFFFFF;}</style><path class="st0" d="M687.5 224h-16.4l-3.7 18.1H657l-2.5 11h10.7l-6.7 32c-.5 2.1-.8 4.2-.8 5.7-.2 9.7 8 12.1 15.6 12.1 3.5 0 6.9-.2 10.3-.6l2.8-12.7c-2 .2-3.9.3-5.9.3-2.4 0-5.5-.1-5.5-4.4 0-.5.2-1.5.5-2.8l6.1-29.7h11.7l2.5-11H684l3.5-18zm-85.8 77.8h16.4l5.5-26.4c2.2-10.2 6.7-19.6 19.3-19.6 2.3 0 4.6.6 6.9 1l3.3-15.9c-1.7-.2-3.3-.3-5.1-.3-8.8 0-16.8 4.4-20.5 12.6l-.2-.2 2.4-10.7h-15.6l-12.4 59.5zm-49.4-24.1c0-10 5.3-24.8 17.3-24.8 8.5 0 12 5.2 12 13.2 0 10-5.3 25-17.5 25-7.7 0-11.8-6.4-11.8-13.4m-16.4 0c0 17.1 10.7 25.7 27.4 25.7 21.7 0 34.7-16.6 34.7-37.6 0-17.2-11.4-25.3-27.8-25.3-21.2 0-34.3 17-34.3 37.2m-78.6 45.1h16.4l6.2-29h.3c2.5 6.6 9.8 9.6 16.7 9.6 22 0 32.4-19.7 32.4-39.4 0-14.3-8.3-23.5-22.6-23.5-7.3 0-14.2 2.8-17.9 9.2l-.2-.2 1.6-7.4h-15.8l-17.1 80.7zm44.1-69.9c7.7 0 11.7 6.1 11.7 13.3 0 10.5-5.5 24.9-17.9 24.9-8 0-11.8-5.3-11.8-12.9 0-10.3 5.7-25.3 18-25.3m-42.1 6.7c.2-15.3-11.4-19-24.5-19-11.5 0-26.4 4.8-26.4 18.9 0 9.3 4.7 12.6 12.9 15.2l12.6 4c3.6 1.2 5.9 2.4 5.9 6.6 0 5.4-5.4 7.2-10.4 7.2-5.7 0-11.8-2.7-11.8-8.1v-2h-15.2v2.4c0 14 13.7 18.6 25.4 18.6 13.7 0 28.4-5.5 28.4-20.3 0-10-6.9-14.2-15.7-17.1l-8.2-2.7c-5.5-1.7-7.5-3.3-7.5-6 0-4.3 4.3-5.9 10-5.9 6.2 0 9.1 3 9.2 8.1h15.3zm-126.8 42.2h16.4l6.7-31.7c1.7-8.3 6.8-16.6 16.7-16.6 3.8 0 7.8 2.5 7.8 6.1 0 1.6-.6 5.5-1 7.3l-7.3 35h16.4l7.4-35c.5-2.1 1.7-7.8 1.7-10.3 0-10.4-6.1-16-17.4-16-8.5 0-15.6 3.3-20.9 9.9h-.2l1.8-8.3h-15.7l-12.4 59.6zm-42.1-41.5c1-6 6.2-8.8 12.1-8.8 4.2 0 10.4 1.4 10.4 7.3 0 7.6-7.3 6.8-22.7 8.7-14.2 1.7-22.9 8.9-22.9 20.3 0 8.3 6.3 15.7 19.4 15.7 6.7 0 13.7-2.4 18.2-7.5v5.9h16.4c-.3-1-.6-2.4-.6-3.5 0-2.3.2-6 .8-8.1l5.3-24c.7-3.7 1.3-7.5 1.3-10 .2-13.4-14.2-15.7-24.8-15.7-13.5 0-26.2 4.7-28.3 19.7h15.4zm17.7 18.7c-1.8 6.5-5.2 13.5-15.4 13.5-4.7 0-9-2.2-9-6.7 0-7.5 5.9-9 12.1-9.7 4.7-.3 9.7-.5 13.8-2.9l-1.5 5.8zm-86.9 22.8h16.4l5.5-26.4c2.2-10.2 6.7-19.6 19.3-19.6 2.3 0 4.6.6 6.9 1l3.3-15.9c-1.7-.2-3.3-.3-5.1-.3-8.8 0-16.9 4.4-20.5 12.6l-.2-.2 2.4-10.7h-15.6l-12.4 59.5zm-42.1 0h18.2l14.1-67.2h24.7l3.2-15.2h-68.8l-3.2 15.2h25.9l-14.1 67.2zm481.8-106.2h16.4l17.5-82.4h-16.4l-17.5 82.4zm-47.7-24.1c0-10 5.3-24.8 17.3-24.8 8.5 0 12 5.2 12 13.2 0 10-5.3 25-17.5 25-7.8 0-11.8-6.3-11.8-13.4m-16.4 0c0 17.1 10.7 25.7 27.4 25.7 21.7 0 34.7-16.6 34.7-37.6 0-17.2-11.4-25.3-27.8-25.3-21.3.1-34.3 17-34.3 37.2m-50.4 0c0-10 5.3-24.8 17.3-24.8 8.5 0 12 5.2 12 13.2 0 10-5.3 25-17.5 25-7.8 0-11.8-6.3-11.8-13.4m-16.4 0c0 17.1 10.7 25.7 27.4 25.7 21.7 0 34.7-16.6 34.7-37.6 0-17.2-11.4-25.3-27.8-25.3-21.3.1-34.3 17-34.3 37.2m-77 45.2h16.4l6.2-29h.3c2.5 6.6 9.8 9.6 16.7 9.6 22 0 32.4-19.7 32.4-39.4 0-14.3-8.3-23.5-22.6-23.5-7.3 0-14.2 2.8-17.9 9.2l-.2-.2 1.6-7.4h-15.8L453 216.7zm44.1-70c7.7 0 11.7 6.1 11.7 13.3 0 10.5-5.5 24.9-17.9 24.9-8 0-11.8-5.3-11.8-12.9 0-10.3 5.8-25.3 18-25.3m-101.3 48.9h16.4l4-19.4 8.5-7.3 9.8 26.7h18l-15.3-37L464 136h-20.2l-23.5 22.3-.3-.3 9.5-44.8h-16.4l-17.3 82.4zm0-39c-.3-15.8-12.2-22.3-26.8-22.3-21.5 0-33.7 17-33.7 37.3 0 17.4 9.9 25.6 26.5 25.6 15.5 0 25.9-8.5 30.8-23.4h-16.4c-1.8 5.9-6 11.1-13.3 11.1-8.3 0-11.3-5.8-11.3-12.9 0-10.3 4.3-25.3 16.7-25.3 7.2 0 11 2.9 11 9.9h16.5zm-103.3-2.5c1-6 6.2-8.8 12.1-8.8 4.2 0 10.4 1.4 10.4 7.3 0 7.6-7.3 6.8-22.7 8.7-14.2 1.7-22.9 8.9-22.9 20.3 0 8.3 6.3 15.7 19.4 15.7 6.7 0 13.7-2.4 18.2-7.5v5.9h16.4c-.3-1-.6-2.4-.6-3.5 0-2.3.2-6 .8-8.1l5.3-24c.7-3.7 1.3-7.5 1.3-10 .2-13.4-14.2-15.7-24.8-15.7-13.5 0-26.2 4.7-28.3 19.7h15.4zm17.7 18.7c-1.8 6.5-5.2 13.5-15.4 13.5-4.7 0-9-2.2-9-6.7 0-7.5 5.9-9 12.1-9.7 4.7-.3 9.7-.5 13.8-2.9l-1.5 5.8zm-69 22.8h16.4l17.5-82.4h-16.4l-17.5 82.4zm-48.7-68.3h19.2c5.9 0 9.6 2.2 9.6 8.4 0 7.2-5.7 10.8-12.2 10.8h-20.5l3.9-19.2zm-31.9 68.3h44c16.5 0 31.5-9.1 31.5-27 0-8-4.4-14.7-12.2-16.7v-.2c9.7-1.2 15.5-9.8 15.5-19.2 0-15.7-10.3-19.3-26.8-19.3H178l-17.4 82.4zm25.3-36.7h17.8c6.6 0 14.3.7 14.3 9.3 0 8.8-6 13.3-14.2 13.3h-22.7l4.8-22.6zM119 0c-.6 0-1.2.5-1.2 1.2v9.5c-.5 2.2-1.5 5.2-1.5 7 0 2.5-5.4 8.8-5.4 10.7 0 1.9.1 8.3.1 10 0 1.6-4.5 2.7-4.5 5V52c0 2.1-4.3 1.9-4.3 4.2v9.4c0 1.7-5.2 2.3-5.2 5.5V86c0 1.7 5.4 6.1 5.4 13.1 0 63-5.4 129.9-12.6 168-2.4 12.7 45.6 35 65.8 35-11.1-37.8-20.1-128.7-20.1-203 0-6.9 5.4-11.3 5.4-13.1V71.1c0-3.2-5.2-3.8-5.2-5.5v-9.4c0-2.3-4.3-2.1-4.3-4.2v-8.6c0-2.3-4.5-3.4-4.5-5s.1-8.1.1-10c0-1.9-5.4-8.2-5.4-10.7 0-1.8-1-4.8-1.5-7V7.4c.8.1 1.7-.1 2.8-.2 2.3-.3 4.9-.6 6.4.9l-.1-6.1c-.6-1.6-2.3-1.1-4.3-.6-1.7.4-3.5.8-4.8-.2.1-.7-.5-1.2-1.1-1.2z"/><path class="st0" d="M746.3 342.2c.1 0 .1 0 0 0 .1 0 .1 0 0 0 .1 0 .1 0 0 0 .1 0 .1 0 0 0-1.5.1-617.4 42.5-679.4-55.7-9.1-14.4-10.6-38.1 14.2-59.5-34.5 2.9-93.2 25.2-78.9 74.9 38.7 134.8 735.6 41.5 744.1 40.3 0 0 .1 0 0 0 .1 0 0 0 0 0z"/></svg>
